<?xml version="1.0" standalone="no"?>
<!DOCTYPE svg PUBLIC "-//W3C//DTD SVG 20010904//EN"
 "http://www.w3.org/TR/2001/REC-SVG-20010904/DTD/svg10.dtd">
<svg version="1.0" xmlns="http://www.w3.org/2000/svg"
 width="400.000000pt" height="400.000000pt" viewBox="0 0 400.000000 400.000000"
 preserveAspectRatio="xMidYMid meet">
<metadata>
Created by potrace 1.11, written by Peter Selinger 2001-2013
</metadata>
<g transform="translate(0.000000,400.000000) scale(0.100000,-0.100000)"
fill="#000000" stroke="none">
<path d="M2710 3375 c0 -17 -16 -20 -23 -5 -3 6 -4 5 -3 -2 5 -23 36 -22 36 1
0 12 -2 21 -5 21 -3 0 -5 -7 -5 -15z"/>
<path d="M2690 3330 c0 -5 4 -10 8 -10 5 0 9 -13 9 -28 0 -16 6 -42 15 -59 13
-27 13 -31 -1 -41 -14 -10 -14 -11 2 -6 14 5 17 0 17 -34 0 -23 5 -44 10 -47
6 -3 10 -19 10 -36 0 -16 -4 -29 -10 -29 -5 0 -10 -8 -10 -19 0 -23 25 -73 33
-65 3 3 3 -4 0 -16 -4 -15 0 -26 12 -32 14 -8 15 -12 4 -19 -12 -8 -12 -11 1
-18 8 -6 11 -13 7 -17 -4 -4 -13 -2 -19 4 -7 7 -23 12 -38 11 l-25 -1 25 -8
25 -7 -25 -11 -25 -11 25 -1 c20 0 22 -2 10 -10 -13 -8 -13 -10 1 -10 11 0 15
-7 12 -22 -2 -13 3 -32 11 -43 8 -11 16 -15 16 -8 0 6 -4 15 -10 18 -15 10
-12 45 5 45 36 0 58 -109 28 -142 -13 -14 -18 -16 -25 -6 -6 10 -8 10 -9 -2 0
-8 -5 -4 -9 10 l-8 25 -1 -27 c-1 -19 4 -28 14 -28 8 0 15 -4 15 -10 0 -5 -5
-10 -11 -10 -7 0 -10 -12 -7 -30 5 -35 2 -36 -25 -12 -19 16 -20 16 -14 -6 5
-20 2 -22 -16 -16 -20 6 -21 5 -7 -11 14 -17 13 -18 -13 -11 -24 6 -28 4 -23
-11 3 -12 -3 -24 -19 -36 -15 -11 -25 -13 -25 -6 0 6 -7 8 -16 5 -9 -3 -36 1
-61 9 -43 15 -98 11 -88 -6 3 -4 -4 -13 -16 -20 -19 -10 -21 -9 -16 5 6 16 3
16 -66 3 -7 -1 -11 5 -9 13 3 12 1 13 -9 3 -16 -16 -33 -17 -24 -2 4 6 -2 5
-14 -3 -23 -14 -28 -28 -9 -28 15 0 -18 -30 -52 -48 -45 -24 -60 -54 -48 -95
8 -25 15 -34 27 -30 10 3 12 2 5 -4 -14 -10 -14 -44 -1 -36 6 4 8 -8 4 -32 -4
-21 -1 -47 5 -59 14 -25 18 -77 6 -70 -4 3 -8 0 -8 -6 0 -6 7 -13 15 -16 10
-4 14 -21 14 -52 0 -26 3 -72 6 -102 4 -30 7 -65 8 -76 1 -12 7 -20 13 -17 6
2 14 -7 16 -21 3 -14 1 -26 -5 -26 -5 0 0 -9 13 -20 18 -16 20 -23 11 -34 -10
-12 -9 -20 4 -40 10 -14 13 -26 7 -26 -6 0 -13 6 -15 13 -4 8 -6 7 -6 -4 -1
-8 4 -20 10 -26 8 -8 5 -13 -10 -18 -12 -3 -28 -22 -36 -41 -8 -19 -19 -34
-24 -34 -6 0 -11 -7 -11 -15 0 -14 -37 -21 -78 -16 -8 1 -19 -3 -27 -9 -9 -8
-17 -7 -29 5 -9 9 -16 13 -16 10 0 -7 -62 37 -88 62 -7 7 -19 13 -27 13 -7 0
-22 3 -32 6 -13 4 -15 3 -5 -4 10 -6 -4 -10 -44 -10 -32 0 -60 -5 -62 -11 -2
-6 -13 -2 -24 9 -12 11 -24 17 -28 15 -3 -2 -14 9 -24 26 -17 29 -36 39 -36
18 0 -5 5 -7 10 -4 6 3 10 2 10 -3 0 -16 -33 -24 -42 -10 -6 10 -8 10 -8 -1 0
-9 -4 -10 -12 -3 -18 14 -48 0 -88 -39 l-33 -33 29 -8 c15 -4 33 -3 40 3 14
11 96 20 89 9 -9 -14 65 -81 93 -85 20 -2 27 -8 26 -24 0 -15 3 -18 10 -11 15
15 26 12 26 -6 0 -8 -4 -12 -10 -9 -14 8 -13 -28 1 -42 6 -6 9 -19 6 -29 -4
-16 -5 -15 -6 4 -2 33 -15 27 -27 -12 -10 -33 -9 -34 8 -25 11 6 27 7 36 3 9
-4 21 -6 26 -5 4 1 14 -4 22 -10 8 -7 14 -7 14 -2 0 6 19 13 42 16 32 4 48 1
61 -11 16 -14 17 -14 12 0 -4 11 2 18 22 23 15 3 30 6 32 5 2 -1 7 4 11 10 10
16 67 -16 73 -42 4 -12 11 -16 23 -11 12 4 15 3 10 -5 -4 -7 -2 -12 3 -12 6 0
11 6 11 13 0 9 3 8 9 -2 5 -7 13 -11 19 -7 6 3 12 0 15 -6 3 -10 12 -9 38 5
20 11 26 12 16 4 -14 -11 -15 -16 -5 -21 7 -3 -10 -4 -39 -2 -29 1 -50 -1 -47
-6 3 -4 -12 -8 -33 -8 -21 0 -62 -7 -91 -14 -40 -11 -68 -12 -110 -5 -32 5
-74 9 -94 9 -24 0 -41 6 -48 17 -11 17 -11 17 -6 0 5 -14 1 -16 -22 -11 -34 8
-70 46 -50 54 18 7 22 31 6 41 -20 13 -28 11 -28 -8 0 -15 -2 -16 -10 -3 -9
15 -13 16 -50 19 -14 1 -20 7 -18 19 2 11 -4 18 -19 20 -13 2 -23 8 -23 13 0
6 -5 7 -11 3 -8 -4 -9 1 -4 17 7 20 6 22 -7 11 -12 -10 -18 -8 -32 6 -14 16
-14 19 -1 19 8 0 15 -7 15 -14 0 -8 5 -11 10 -8 15 9 12 21 -7 41 -13 13 -14
19 -5 22 6 2 12 11 12 20 -1 14 -5 12 -20 -7 -13 -15 -20 -18 -20 -9 0 8 5 19
12 26 9 9 8 12 -5 12 -9 0 -17 -8 -18 -17 0 -15 -2 -15 -9 2 -6 13 -9 15 -9 5
-1 -13 -2 -13 -11 0 -8 12 -10 11 -10 -7 0 -19 -5 -23 -34 -23 -30 0 -34 -4
-41 -32 -6 -31 -7 -32 -15 -10 -11 27 -20 29 -15 2 2 -11 0 -20 -6 -20 -5 0
-9 5 -9 11 0 7 -11 9 -27 6 -20 -4 -32 1 -45 16 -13 14 -18 16 -18 6 0 -8 5
-20 12 -27 7 -7 9 -12 5 -12 -11 0 -51 24 -59 35 -5 6 -8 4 -8 -5 -1 -12 -4
-11 -15 4 -7 10 -19 15 -25 11 -13 -8 -59 20 -78 47 -7 10 -19 18 -25 18 -7 0
-6 -4 3 -10 12 -7 12 -12 2 -22 -18 -18 -14 -30 8 -23 11 3 20 3 20 -1 0 -10
-42 -44 -54 -43 -6 0 -6 3 2 6 6 2 12 9 12 15 0 6 -9 3 -19 -6 -12 -11 -17
-25 -14 -34 5 -11 2 -14 -10 -9 -13 5 -17 1 -17 -19 0 -13 -7 -27 -16 -31 -13
-5 -13 -7 -2 -14 10 -6 9 -12 -7 -24 -20 -16 -20 -16 2 -6 30 15 61 15 46 0
-8 -8 -6 -16 8 -30 10 -10 19 -31 19 -45 0 -14 4 -22 10 -19 6 4 7 -6 4 -25
-5 -23 -3 -30 9 -30 9 0 19 -10 23 -22 7 -22 7 -22 31 7 l25 30 -6 -35 c-5
-29 -5 -31 4 -12 5 13 8 36 5 50 l-5 27 12 -27 c7 -16 18 -28 25 -28 18 0 16
17 -3 24 -8 3 -13 10 -10 15 3 5 -1 12 -9 15 -10 3 -18 -1 -22 -12 -6 -14 -8
-13 -14 8 -6 23 -7 23 -8 -7 -1 -18 -4 -33 -9 -33 -8 0 -31 61 -37 100 -2 14
-2 17 1 7 11 -34 24 -16 20 26 -6 60 4 71 61 72 l49 0 -3 -35 c-1 -19 1 -30 5
-23 6 9 14 8 35 -6 15 -9 24 -20 21 -24 -4 -4 0 -9 8 -12 9 -4 14 -17 13 -35
-1 -17 1 -30 5 -30 3 0 11 -12 17 -27 l11 -28 1 28 c1 31 1 31 46 13 18 -8 36
-12 39 -8 3 3 6 0 6 -7 0 -7 4 -10 9 -7 5 3 22 -7 38 -22 60 -56 93 -82 93
-74 0 14 41 11 47 -4 8 -22 63 60 63 96 0 26 4 30 28 30 17 -1 34 -10 45 -25
22 -30 14 -48 -16 -39 -20 6 -20 5 3 -13 48 -37 127 -55 115 -26 -3 8 -5 19
-5 24 0 5 -4 9 -10 9 -5 0 -7 -7 -3 -15 7 -19 -13 -16 -39 5 -22 17 -23 33 -4
49 11 10 20 10 37 0 18 -9 24 -9 34 4 10 13 33 16 128 16 64 0 121 2 126 5 5
4 22 -4 37 -17 25 -22 27 -27 16 -53 -19 -45 -24 -104 -9 -105 6 0 -3 -5 -20
-10 -41 -12 -43 -27 -3 -21 19 3 30 0 30 -8 0 -9 14 -10 55 -5 46 5 55 4 55
-9 0 -9 8 -16 18 -17 10 0 12 -3 5 -6 -7 -2 -13 -12 -14 -21 0 -11 -2 -12 -6
-4 -7 18 -20 15 -26 -8 -3 -13 -11 -18 -20 -14 -8 3 -18 1 -22 -5 -3 -6 -11
-11 -16 -11 -6 0 -7 5 -4 10 3 6 1 10 -4 10 -6 0 -11 -7 -11 -16 0 -11 -6 -13
-19 -9 -29 9 -71 -4 -64 -21 8 -22 -11 -16 -27 9 -8 12 -14 24 -13 27 1 3 -7
6 -17 7 -19 2 -19 1 0 -19 21 -22 19 -41 -2 -20 -15 15 -38 16 -38 2 0 -5 7
-10 15 -10 8 0 15 -4 15 -10 0 -5 6 -7 14 -4 8 3 17 1 21 -5 3 -6 0 -14 -9
-17 -8 -3 -12 -12 -9 -20 4 -11 9 -9 22 6 13 17 23 19 49 14 19 -4 36 -13 39
-20 7 -18 23 -18 23 0 0 8 -12 18 -27 23 l-28 10 23 12 c26 14 67 6 44 -8 -10
-6 -10 -11 3 -21 12 -10 15 -10 15 1 1 10 4 8 11 -3 14 -26 31 -22 24 5 -5 18
-3 16 10 -6 14 -25 17 -26 31 -12 19 19 25 19 18 0 -8 -19 10 -19 26 0 9 10 9
15 1 15 -6 0 -11 10 -10 23 0 13 3 16 6 8 10 -25 37 -51 53 -51 13 0 13 2 0
11 -12 9 -12 10 3 5 10 -3 21 -6 24 -6 3 0 0 -7 -7 -15 -7 -8 -19 -15 -28 -15
-13 0 -12 -3 2 -19 10 -11 25 -17 34 -14 10 4 13 2 8 -5 -4 -7 -13 -12 -21
-12 -8 0 -11 -8 -8 -22 4 -22 4 -23 -11 -4 -9 11 -14 28 -10 38 3 10 0 18 -6
18 -7 0 -10 6 -7 13 9 24 -8 40 -23 22 -10 -12 -10 -18 0 -30 9 -10 9 -15 1
-15 -6 0 -11 -7 -11 -15 0 -10 -6 -12 -17 -8 -16 6 -16 5 -4 -10 11 -14 17
-15 30 -5 9 6 -1 -5 -23 -26 -27 -28 -41 -35 -49 -27 -18 18 -28 12 -17 -9 6
-11 14 -18 18 -16 5 3 14 1 22 -5 11 -6 8 -9 -14 -9 -21 0 -27 -4 -22 -15 4
-11 0 -15 -11 -13 -10 2 -18 -3 -18 -12 0 -31 -53 -102 -72 -99 -20 3 -27 -2
-13 -11 9 -6 11 -10 3 -10 -8 0 -10 -7 -6 -17 6 -15 4 -16 -9 -5 -13 10 -19 8
-39 -12 -21 -22 -24 -23 -36 -8 -11 15 -12 15 -13 -3 0 -17 -2 -17 -10 -5 -8
13 -10 13 -10 -2 0 -9 -5 -20 -12 -24 -7 -4 -8 -3 -4 4 4 7 1 12 -8 12 -9 0
-16 4 -16 9 0 6 -15 5 -36 -1 -29 -7 -38 -6 -47 6 -9 12 -20 14 -49 7 -21 -5
-37 -6 -36 -2 0 3 0 15 -1 26 -2 19 -2 19 -14 -3 -7 -12 -16 -20 -20 -16 -4 4
-2 13 4 21 9 10 5 13 -20 13 -17 0 -31 5 -31 10 0 6 -9 10 -19 10 -11 0 -27 7
-35 16 -9 8 -20 13 -25 10 -5 -3 -7 3 -4 15 5 19 4 20 -16 10 -20 -11 -25 -8
-22 12 1 5 -4 5 -10 2 -6 -4 -9 -16 -6 -26 3 -11 1 -19 -4 -19 -5 0 -9 10 -9
23 0 15 -14 34 -42 55 -23 18 -46 32 -50 32 -5 0 -6 5 -3 10 3 6 1 10 -4 10
-6 0 -11 -7 -11 -17 0 -18 -15 -8 -15 10 0 7 -8 11 -17 11 -13 -1 -15 2 -8 15
5 10 5 23 -1 32 -7 12 -9 11 -9 -3 0 -11 -5 -15 -14 -12 -11 4 -13 12 -6 30
10 26 4 54 -12 54 -5 0 -6 -4 -3 -10 3 -5 -1 -10 -9 -10 -9 0 -16 7 -16 15 0
18 -20 20 -20 3 0 -7 -5 -5 -11 5 -6 10 -9 27 -6 37 7 28 -19 47 -43 32 -16
-10 -18 -9 -13 4 4 12 -1 14 -26 9 -19 -3 -31 -1 -31 6 0 6 -7 18 -16 26 -13
14 -17 14 -26 2 -7 -11 -9 -9 -5 8 3 12 2 22 -2 21 -17 -2 -32 3 -27 10 2 4
-4 25 -14 47 -11 22 -17 48 -14 58 7 21 -5 22 -20 2 -10 -14 -13 -14 -31 -1
-16 13 -18 17 -6 25 9 6 11 16 7 27 -7 18 -8 18 -17 1 -14 -25 -27 -21 -22 7
3 13 -1 27 -7 31 -9 5 -10 1 -5 -16 6 -20 5 -22 -6 -11 -8 7 -14 17 -14 23 0
20 -20 13 -23 -9 -2 -12 -8 -22 -14 -22 -5 0 -8 6 -5 14 3 8 -2 17 -11 21 -14
5 -10 10 18 25 20 11 28 19 18 20 -9 0 -19 6 -21 13 -3 7 -6 5 -6 -5 -1 -18
-12 -22 -40 -18 -11 1 -10 -2 3 -15 22 -22 21 -46 -1 -38 -16 6 -16 5 -4 -10
7 -9 19 -17 26 -17 13 0 25 -30 25 -66 0 -12 7 -27 15 -34 9 -7 14 -19 11 -27
-3 -8 1 -16 9 -19 8 -4 12 -11 9 -16 -4 -6 1 -8 13 -4 17 6 20 3 16 -18 -3
-16 2 -31 15 -44 14 -14 17 -22 9 -26 -9 -3 -8 -8 3 -15 13 -9 13 -12 1 -20
-11 -7 -10 -11 6 -20 11 -5 24 -7 28 -3 5 4 4 0 -1 -8 -15 -26 -13 -40 7 -40
24 0 25 -18 2 -37 -10 -8 -12 -12 -5 -8 7 4 12 -1 13 -12 0 -14 2 -14 9 5 5
12 15 22 22 21 10 0 10 -2 1 -6 -7 -2 -13 -11 -13 -19 0 -9 5 -12 10 -9 6 4
10 -9 10 -32 0 -52 13 -71 34 -53 9 7 19 10 22 7 3 -3 -3 -12 -15 -19 -27 -17
-26 -24 4 -32 14 -4 25 -11 25 -16 0 -14 -17 -12 -23 3 -3 7 -6 5 -6 -5 -1
-10 6 -18 15 -18 8 0 12 -5 9 -10 -3 -6 2 -10 12 -10 14 0 15 -2 4 -9 -11 -7
-10 -13 4 -35 10 -14 21 -26 26 -26 5 0 9 -7 9 -16 0 -8 5 -12 10 -9 6 3 10
-2 10 -12 0 -10 6 -35 14 -56 10 -30 15 -35 20 -22 4 11 0 25 -9 35 -9 10 -12
20 -7 23 4 3 14 -3 22 -13 8 -10 17 -17 22 -14 4 3 8 -5 8 -18 0 -18 2 -20 10
-8 9 13 10 13 10 -1 0 -8 -5 -20 -11 -26 -7 -7 -6 -12 5 -16 12 -5 16 0 17 16
1 20 2 20 13 -5 9 -22 15 -25 24 -16 9 9 16 6 32 -12 11 -12 17 -27 14 -31 -7
-12 3 -11 27 1 22 12 79 -12 79 -34 0 -8 10 -16 21 -19 15 -4 20 -11 16 -21
-10 -24 7 -19 18 6 6 12 17 24 25 26 12 4 11 1 -2 -15 -17 -19 -17 -19 12 -15
18 3 30 0 30 -7 0 -6 7 -11 15 -11 18 0 20 16 3 23 -8 3 -6 6 5 6 9 1 17 -5
17 -11 0 -9 4 -8 10 2 8 12 10 12 11 -5 0 -11 3 -14 6 -7 5 13 24 17 22 5 -1
-5 -1 -15 0 -23 1 -12 4 -12 15 2 7 10 27 19 44 20 18 1 32 6 32 10 0 4 5 8
11 8 6 0 8 -8 4 -20 -6 -18 -5 -19 22 -5 33 17 53 19 53 5 0 -5 -9 -10 -20
-10 -24 0 -27 -15 -4 -24 27 -10 44 -7 44 9 0 9 9 15 24 15 14 0 28 5 32 12 5
8 10 6 15 -8 11 -28 11 -56 -1 -49 -5 3 -10 1 -10 -6 0 -10 -3 -10 -12 -1 -7
7 -19 12 -27 12 -11 0 -10 -4 5 -14 16 -12 77 -15 344 -14 194 0 311 3 290 8
-19 5 -38 6 -42 4 -5 -3 -8 1 -8 8 0 10 -3 9 -10 -2 -7 -11 -15 -1 -34 42 -14
32 -35 63 -46 70 -26 17 -26 39 5 207 32 180 50 237 90 286 42 52 132 184 173
255 18 30 37 62 42 70 11 17 61 129 78 175 7 17 18 59 26 94 8 34 17 65 19 67
2 3 15 0 29 -5 48 -18 119 35 122 92 1 12 -3 25 -8 29 -7 4 -6 20 4 45 7 21
14 45 15 53 1 8 10 32 19 53 31 71 44 209 41 431 -4 200 -5 209 -26 232 -24
26 -58 31 -77 12 -28 -28 -34 9 -33 188 0 130 -3 180 -12 186 -8 5 -9 10 -1
18 14 14 6 62 -9 53 -6 -3 -3 4 6 18 9 13 17 33 17 45 0 12 6 25 13 28 10 5
10 7 0 12 -7 3 -13 19 -13 35 0 18 4 28 10 24 6 -3 10 -1 10 4 0 6 -7 11 -16
11 -14 0 -15 8 -10 54 4 30 3 57 -2 60 -5 3 -7 -6 -4 -19 3 -19 0 -25 -13 -25
-13 0 -16 6 -13 25 4 18 2 23 -6 16 -7 -6 -17 -6 -26 -1 -8 6 -10 10 -4 10 7
0 14 9 17 20 3 11 1 18 -3 15 -5 -3 -14 3 -19 14 -16 28 -13 35 6 20 15 -13
15 -12 2 9 -8 12 -19 22 -26 22 -7 0 -13 10 -13 21 0 19 -2 20 -17 8 -15 -13
-16 -11 -9 14 4 16 2 27 -4 27 -5 0 -10 10 -10 23 0 18 2 19 10 7 5 -8 10 -10
10 -5 0 6 -4 16 -9 23 -6 11 -10 10 -15 -4 -6 -16 -10 -14 -28 14 -11 17 -24
32 -28 32 -5 0 -11 14 -15 30 -5 24 -13 32 -38 37 -27 5 -28 7 -12 14 18 7 17
8 -5 8 -20 1 -22 3 -10 11 11 7 2 10 -32 10 -27 0 -48 -4 -48 -10z m140 -520
c28 -28 25 -31 -10 -13 -17 8 -28 19 -25 24 9 13 12 12 35 -11z m207 -172 c-3
-8 -6 -5 -6 6 -1 11 2 17 5 13 3 -3 4 -12 1 -19z m-200 -50 c-3 -8 -6 -5 -6 6
-1 11 2 17 5 13 3 -3 4 -12 1 -19z m213 -40 c0 -37 -7 -34 -14 5 -2 15 0 27 5
27 5 0 9 -14 9 -32z m-4 -65 c-6 -6 -36 9 -36 18 0 5 9 4 20 -3 10 -7 18 -14
16 -15z m-570 -282 c-4 -5 0 -12 6 -14 7 -3 2 -6 -11 -6 -20 -1 -21 1 -11 14
14 16 25 21 16 6z m121 3 c-3 -3 -12 -4 -19 -1 -8 3 -5 6 6 6 11 1 17 -2 13
-5z m-17 -128 c0 -2 -7 -7 -16 -10 -8 -3 -12 -2 -9 4 6 10 25 14 25 6z m-95
-86 c-3 -5 -2 -10 4 -10 5 0 12 4 16 10 4 6 15 5 30 -2 13 -6 22 -15 19 -20
-3 -5 7 -6 23 -3 21 5 24 4 13 -4 -13 -9 -13 -11 3 -11 9 0 17 4 17 10 0 5 8
6 17 3 14 -6 12 -9 -12 -19 -17 -7 -25 -13 -18 -14 6 0 14 -8 16 -17 4 -14 5
-14 6 3 1 20 7 22 76 22 64 1 75 -1 76 -16 0 -10 3 -12 6 -4 2 6 12 12 21 12
13 0 14 -2 4 -9 -10 -6 -8 -10 10 -16 12 -4 26 -7 31 -6 4 1 7 -8 7 -20 0 -11
-4 -17 -10 -14 -5 3 -10 -1 -10 -9 0 -8 5 -18 12 -22 7 -5 8 -3 3 6 -6 9 -4
11 4 6 7 -5 10 -15 7 -23 -6 -14 17 -47 26 -38 2 2 4 -5 4 -16 0 -19 -1 -19
-13 -3 -19 26 -25 12 -7 -14 8 -12 19 -20 24 -17 4 3 10 -11 12 -29 2 -19 0
-32 -4 -30 -4 3 -8 -2 -8 -10 0 -10 6 -13 15 -10 9 4 15 0 15 -10 0 -9 8 -17
18 -17 16 -1 16 -2 -1 -6 -9 -2 -14 -9 -10 -15 4 -8 0 -9 -13 -5 -18 7 -18 6
-1 -7 18 -14 18 -15 -2 -26 -24 -12 -28 -30 -6 -30 12 0 13 -4 3 -25 -6 -14
-15 -25 -21 -25 -5 0 -7 -6 -4 -14 6 -15 -16 -40 -26 -30 -3 3 -4 -5 -1 -18 2
-12 2 -17 -2 -10 -6 14 -34 17 -34 3 0 -5 7 -14 15 -21 8 -7 14 -20 14 -29 -1
-13 -2 -13 -6 1 -3 14 -9 16 -22 8 -10 -5 -21 -6 -25 -3 -3 3 -6 0 -7 -8 -1
-8 -4 -3 -9 11 l-7 25 -11 -25 c-6 -14 -11 -18 -12 -10 0 13 -1 13 -10 0 -9
-13 -10 -13 -10 0 0 13 -1 13 -10 0 -9 -13 -10 -13 -10 0 0 13 -1 13 -10 0 -8
-11 -9 -7 -4 15 4 23 3 26 -5 15 -9 -12 -11 -11 -11 8 0 12 -4 22 -9 22 -18 0
-60 46 -66 73 -8 29 -59 87 -76 87 -6 0 -7 5 -3 11 5 8 -1 10 -20 7 -19 -4
-26 -2 -22 7 6 16 -13 35 -36 35 -20 0 -25 20 -5 20 6 0 4 5 -6 11 -9 6 -15
14 -12 20 4 5 -1 12 -9 15 -9 3 -16 11 -16 17 0 6 -12 21 -27 34 -25 19 -26
22 -8 23 14 0 16 3 8 11 -6 6 -9 18 -6 25 3 8 -1 14 -10 14 -9 0 -19 5 -23 11
-4 8 1 9 16 4 18 -6 21 -4 14 6 -14 23 -11 63 5 76 10 8 11 12 4 13 -6 0 -15
-4 -18 -10 -10 -16 -21 -11 -21 9 0 15 7 19 28 19 15 -1 25 -4 23 -8 -2 -4 2
-16 10 -26 8 -11 14 -14 15 -6 0 6 7 12 15 12 8 0 15 7 15 15 0 16 29 10 42
-9 5 -8 8 -7 8 1 0 6 -7 18 -15 26 -14 14 -11 27 7 27 5 0 6 -4 3 -10z m692
-12 c-3 -8 -6 -5 -6 6 -1 11 2 17 5 13 3 -3 4 -12 1 -19z m-140 -80 c-3 -8 -6
-5 -6 6 -1 11 2 17 5 13 3 -3 4 -12 1 -19z m140 -20 c-3 -8 -6 -5 -6 6 -1 11
2 17 5 13 3 -3 4 -12 1 -19z m-855 3 c8 12 9 12 6 0 -6 -22 -28 -25 -27 -4 0
12 2 14 6 4 5 -11 7 -11 15 0z m768 -141 c0 -5 -4 -10 -10 -10 -5 0 -10 5 -10
10 0 6 5 10 10 10 6 0 10 -4 10 -10z m-650 -110 c0 -5 -5 -10 -11 -10 -5 0 -7
5 -4 10 3 6 8 10 11 10 2 0 4 -4 4 -10z m-693 -56 c-3 -3 -12 -4 -19 -1 -8 3
-5 6 6 6 11 1 17 -2 13 -5z m733 -75 c0 -6 -4 -7 -10 -4 -5 3 -10 11 -10 16 0
6 5 7 10 4 6 -3 10 -11 10 -16z m107 -1 c-3 -8 -6 -5 -6 6 -1 11 2 17 5 13 3
-3 4 -12 1 -19z m-1047 -52 c0 -2 -8 -10 -17 -17 -16 -13 -17 -12 -4 4 13 16
21 21 21 13z m1125 -36 c3 -5 1 -10 -4 -10 -6 0 -11 5 -11 10 0 6 2 10 4 10 3
0 8 -4 11 -10z m-735 -38 c0 -15 -2 -15 -10 -2 -13 20 -13 33 0 25 6 -3 10
-14 10 -23z m-297 5 c3 -8 -1 -14 -9 -14 -15 0 -18 9 -7 20 9 9 10 9 16 -6z
m277 -36 c0 -9 -7 -3 -15 13 -19 36 -19 47 0 22 8 -11 15 -27 15 -35z m-593
-7 c-3 -3 -12 -4 -19 -1 -8 3 -5 6 6 6 11 1 17 -2 13 -5z m418 -35 c-3 -4 9
-22 27 -39 l33 -30 -50 1 c-48 2 -75 12 -75 30 0 5 8 6 18 3 16 -5 16 -5 0 9
-20 16 -25 32 -7 21 8 -5 10 1 5 19 -6 25 -6 25 24 10 17 -8 28 -19 25 -24z
m-605 -19 c0 -11 -2 -20 -4 -20 -2 0 -6 9 -9 20 -3 11 -1 20 4 20 5 0 9 -9 9
-20z m1649 -64 c9 -10 9 -24 2 -48 -5 -18 -10 -27 -10 -20 -1 11 -3 11 -14 0
-7 -7 -16 -21 -20 -31 -4 -10 -11 -15 -17 -12 -5 3 -10 1 -10 -4 0 -6 7 -11
15 -11 12 0 13 -3 3 -19 -6 -10 -18 -17 -25 -14 -9 4 -11 0 -7 -11 9 -23 -46
-82 -58 -64 -5 9 -8 9 -8 2 0 -6 -13 -17 -29 -24 -16 -6 -32 -18 -35 -26 -6
-16 10 -19 19 -4 12 19 22 10 22 -20 0 -25 -4 -29 -19 -24 -11 3 -18 0 -18 -8
0 -10 -3 -9 -10 2 -6 9 -10 10 -10 3 0 -6 10 -20 23 -30 12 -10 23 -29 25 -42
2 -20 0 -22 -13 -11 -8 7 -15 9 -15 4 0 -5 -5 -2 -10 6 -9 13 -11 13 -20 0 -8
-12 -10 -10 -10 9 0 16 -4 21 -15 17 -8 -3 -15 -1 -15 3 0 5 -7 12 -16 15 -14
6 -15 4 -4 -9 11 -13 11 -19 -3 -33 -11 -10 -17 -12 -17 -4 0 7 6 12 13 12 8
0 7 3 -3 9 -16 11 -33 4 -25 -10 4 -5 1 -9 -4 -9 -17 0 -13 21 7 36 16 12 16
13 0 14 -20 0 -21 40 -1 40 7 0 13 7 13 15 0 9 6 12 18 9 16 -5 16 -5 0 9 -13
10 -15 16 -6 25 9 9 8 12 -5 12 -10 0 -17 7 -16 18 0 10 3 12 6 5 8 -20 23
-15 23 7 0 26 -40 21 -51 -6 -7 -18 -8 -18 -8 -1 -1 28 22 45 55 40 21 -3 25
-2 14 6 -8 5 -18 7 -22 5 -10 -6 -10 -1 -2 20 3 9 10 14 14 11 5 -3 12 5 16
17 6 21 7 21 20 -8 l13 -29 -6 30 c-3 17 -6 34 -7 39 -2 16 37 19 48 4 19 -25
62 -27 76 -4 10 17 10 19 -1 9 -18 -18 -59 -16 -59 2 0 8 -6 15 -12 15 -7 0
-3 7 9 15 22 15 73 17 73 3 0 -4 7 -8 16 -8 8 0 12 4 9 10 -3 5 7 15 22 22 15
7 32 18 36 25 11 17 32 16 46 -1z m-452 -28 c0 -7 4 -25 7 -39 9 -32 -14 -54
-48 -45 -32 8 -41 39 -20 71 17 26 60 35 61 13z m539 -57 c0 -11 -4 -17 -8
-15 -4 3 -8 12 -8 20 0 8 4 14 8 14 4 0 8 -9 8 -19z m-62 -101 c-5 -5 -10 3
-11 18 -1 22 0 24 9 8 6 -10 6 -22 2 -26z m27 9 c-9 -22 -10 -22 -10 -3 -1 11
2 24 6 27 12 12 14 0 4 -24z m-1811 1 c0 -5 -5 -10 -11 -10 -5 0 -7 5 -4 10 3
6 8 10 11 10 2 0 4 -4 4 -10z m1430 -100 c0 -11 -4 -20 -9 -20 -6 0 -9 9 -8
20 1 11 5 20 9 20 4 0 8 -9 8 -20z m195 0 c3 -5 1 -10 -4 -10 -6 0 -11 5 -11
10 0 6 2 10 4 10 3 0 8 -4 11 -10z m-5 -70 c0 -5 -4 -10 -10 -10 -5 0 -10 5
-10 10 0 6 5 10 10 10 6 0 10 -4 10 -10z m-227 -7 c-7 -2 -13 -12 -13 -20 0
-9 -3 -14 -6 -10 -10 10 4 37 18 36 10 0 10 -2 1 -6z m-213 -13 c0 -5 -4 -10
-10 -10 -5 0 -10 5 -10 10 0 6 5 10 10 10 6 0 10 -4 10 -10z m-970 -30 c0 -5
-2 -10 -4 -10 -3 0 -8 5 -11 10 -3 6 -1 10 4 10 6 0 11 -4 11 -10z m1100 -16
c0 -8 -4 -12 -10 -9 -5 3 -10 10 -10 16 0 5 5 9 10 9 6 0 10 -7 10 -16z
m-1065 -14 c3 -5 1 -10 -4 -10 -6 0 -11 5 -11 10 0 6 2 10 4 10 3 0 8 -4 11
-10z m1219 -26 c3 -8 2 -12 -4 -9 -6 3 -10 10 -10 16 0 14 7 11 14 -7z m-989
-205 c11 -16 1 -19 -13 -3 -7 8 -8 14 -3 14 5 0 13 -5 16 -11z m-278 -5 c-3
-3 -12 -4 -19 -1 -8 3 -5 6 6 6 11 1 17 -2 13 -5z m1063 -54 c0 -5 -2 -10 -4
-10 -3 0 -8 5 -11 10 -3 6 -1 10 4 10 6 0 11 -4 11 -10z m-590 -40 c0 -5 -2
-10 -4 -10 -3 0 -8 5 -11 10 -3 6 -1 10 4 10 6 0 11 -4 11 -10z m-405 -20 c3
-6 -1 -7 -9 -4 -18 7 -21 14 -7 14 6 0 13 -4 16 -10z m15 -50 c0 -5 -4 -10
-10 -10 -5 0 -10 5 -10 10 0 6 5 10 10 10 6 0 10 -4 10 -10z m630 0 c0 -5 -2
-10 -4 -10 -3 0 -8 5 -11 10 -3 6 -1 10 4 10 6 0 11 -4 11 -10z m-402 -205
c-3 -3 -9 2 -12 12 -6 14 -5 15 5 6 7 -7 10 -15 7 -18z m150 -50 c-3 -3 -9 2
-12 12 -6 14 -5 15 5 6 7 -7 10 -15 7 -18z m-18 -21 c0 -8 -5 -12 -10 -9 -6 4
-8 11 -5 16 9 14 15 11 15 -7z m216 -17 c4 -4 -2 -7 -12 -7 -11 0 -26 -6 -33
-12 -11 -11 -11 -9 -2 9 10 20 32 25 47 10z m245 -53 c-9 -28 -9 -29 -10 -3
-1 14 2 29 6 32 11 12 13 2 4 -29z"/>
<path d="M2735 1920 c-3 -5 -1 -10 4 -10 6 0 11 5 11 10 0 6 -2 10 -4 10 -3 0
-8 -4 -11 -10z"/>
<path d="M2551 1114 c0 -11 3 -14 6 -6 3 7 2 16 -1 19 -3 4 -6 -2 -5 -13z"/>
<path d="M2546 1074 c-3 -9 -6 -29 -6 -46 0 -23 -4 -29 -15 -24 -17 6 -20 -25
-5 -59 7 -17 9 -17 9 -2 1 20 17 23 24 5 4 -10 6 -10 6 0 1 6 7 12 15 12 22 0
28 29 11 53 -15 22 -19 18 -15 -20 1 -13 -3 -23 -8 -23 -5 0 -8 27 -7 60 2 64
1 69 -9 44z"/>
<path d="M2600 1020 c0 -5 5 -10 10 -10 6 0 10 5 10 10 0 6 -4 10 -10 10 -5 0
-10 -4 -10 -10z"/>
<path d="M2503 903 c-18 -7 -16 -30 3 -37 21 -8 33 0 30 21 -3 19 -14 24 -33
16z"/>
<path d="M2560 830 c0 -5 5 -10 10 -10 6 0 10 5 10 10 0 6 -4 10 -10 10 -5 0
-10 -4 -10 -10z"/>
<path d="M2790 2703 c1 -18 18 -35 24 -24 4 6 4 16 1 21 -7 12 -25 13 -25 3z"/>
<path d="M1400 2542 c0 -10 -3 -13 -8 -7 -9 13 -30 13 -40 0 -4 -5 -18 -16
-32 -24 -53 -30 -63 -37 -96 -65 -19 -16 -34 -36 -34 -43 0 -8 -7 -16 -15 -19
-8 -4 -15 -17 -15 -31 0 -15 -4 -22 -11 -17 -8 4 -8 0 0 -15 10 -18 9 -23 -11
-31 -13 -5 -17 -9 -11 -9 7 -1 12 -4 11 -8 -3 -10 33 -53 44 -53 4 0 4 7 1 17
-5 11 -3 14 6 8 8 -4 16 -2 21 5 5 8 9 8 13 -4 4 -9 1 -15 -5 -13 -6 1 -13 -4
-16 -12 -2 -8 0 -11 6 -8 5 4 15 0 22 -8 10 -12 8 -14 -12 -13 -59 2 -103 -3
-88 -11 19 -11 137 -34 173 -34 16 0 25 -3 20 -6 -18 -13 -11 -29 15 -34 40
-8 122 -46 122 -57 0 -5 -12 -11 -27 -13 -16 -2 22 -4 82 -4 61 0 120 4 133 9
13 4 22 4 22 -3 0 -6 7 -6 20 1 14 8 26 8 41 0 15 -9 28 -9 50 0 16 7 36 9 45
6 12 -5 15 -2 10 9 -3 9 -2 14 3 11 5 -3 17 5 27 19 10 13 21 22 25 20 4 -3
12 2 19 10 6 7 17 12 25 9 8 -4 16 6 20 27 5 23 10 28 16 18 7 -12 9 -11 10 1
1 8 1 18 0 23 0 4 4 7 10 7 7 0 9 11 5 30 -4 22 -1 34 12 45 46 38 66 56 55
50 -8 -3 -13 0 -13 8 0 10 7 13 18 10 15 -4 18 1 14 31 -4 33 -32 74 -32 47 0
-7 -10 -2 -22 9 -21 19 -23 19 -29 4 -4 -13 -8 -14 -13 -6 -4 7 -5 16 -2 21 7
10 -22 37 -30 28 -4 -3 -17 7 -31 24 -14 16 -30 29 -36 29 -7 0 -1 -9 12 -19
14 -11 20 -21 13 -25 -6 -3 -20 6 -31 20 -12 15 -21 24 -21 20 0 -4 -11 1 -25
10 -27 18 -79 28 -70 14 9 -15 -51 -24 -167 -25 -73 0 -116 4 -115 10 1 5 -10
10 -24 11 -15 1 -34 4 -43 7 -11 4 -16 1 -16 -11z m200 -272 c0 -5 -7 -7 -15
-4 -8 4 -15 8 -15 10 0 2 7 4 15 4 8 0 15 -4 15 -10z m126 -38 c-8 -7 -76 -20
-76 -13 0 3 3 16 6 28 6 21 7 21 40 6 19 -9 32 -18 30 -21z m-39 -92 c-1 -11
-8 -21 -17 -22 -15 -1 -31 -4 -40 -8 -20 -7 -41 -7 -46 2 -4 6 -10 5 -15 -3
-8 -11 -12 -11 -23 4 -12 15 -18 17 -36 7 -11 -6 -26 -9 -33 -6 -7 2 -4 5 7 5
12 1 16 6 12 16 -6 17 3 19 38 5 17 -6 27 -6 32 1 3 6 17 8 31 4 15 -3 22 -2
19 4 -4 6 7 8 29 6 26 -4 34 -2 29 7 -4 6 -3 8 4 4 6 -3 10 -15 9 -26z"/>
<path d="M2590 2505 c-7 -9 -11 -18 -8 -20 3 -3 11 1 18 10 7 9 11 18 8 20 -3
3 -11 -1 -18 -10z"/>
<path d="M2635 2500 c-3 -5 1 -10 10 -10 9 0 13 5 10 10 -3 6 -8 10 -10 10 -2
0 -7 -4 -10 -10z"/>
<path d="M2021 2464 c0 -11 3 -14 6 -6 3 7 2 16 -1 19 -3 4 -6 -2 -5 -13z"/>
<path d="M756 2370 c10 -16 19 -28 21 -26 7 7 -17 56 -27 56 -7 0 -4 -13 6
-30z"/>
<path d="M617 2316 c-10 -15 -16 -47 -16 -87 -1 -35 -1 -82 -2 -104 -3 -70 1
-125 9 -125 4 0 8 39 9 88 3 144 1 139 35 121 14 -8 23 -8 31 0 31 31 77 1
116 -77 l22 -43 -39 -37 c-35 -33 -61 -93 -53 -125 1 -5 -3 -6 -8 -2 -6 3 -13
-7 -16 -22 -4 -15 -10 -35 -14 -43 -9 -17 -4 -40 10 -40 5 0 9 5 9 11 0 6 16
29 35 50 19 22 35 48 35 58 0 11 11 41 25 67 27 51 32 102 13 137 -19 32 -88
121 -88 112 0 -5 -16 13 -36 38 -41 53 -55 57 -77 23z"/>
<path d="M790 2331 c0 -6 4 -13 10 -16 6 -3 7 1 4 9 -7 18 -14 21 -14 7z"/>
<path d="M646 1745 c4 -8 8 -15 10 -15 2 0 4 7 4 15 0 8 -4 15 -10 15 -5 0 -7
-7 -4 -15z"/>
<path d="M830 1540 c-9 -17 -8 -20 10 -20 13 0 20 7 20 20 0 11 -4 20 -10 20
-5 0 -14 -9 -20 -20z"/>
<path d="M1190 1345 c0 -8 5 -15 10 -15 6 0 10 7 10 15 0 8 -4 15 -10 15 -5 0
-10 -7 -10 -15z"/>
<path d="M2150 1310 c0 -5 5 -10 11 -10 5 0 7 5 4 10 -3 6 -8 10 -11 10 -2 0
-4 -4 -4 -10z"/>
<path d="M1191 1292 c-15 -28 -14 -39 4 -39 10 0 12 4 5 12 -6 7 -5 16 2 23 6
6 9 14 6 18 -4 3 -11 -3 -17 -14z"/>
<path d="M965 1200 c3 -5 8 -10 11 -10 2 0 4 5 4 10 0 6 -5 10 -11 10 -5 0 -7
-4 -4 -10z"/>
<path d="M990 1190 c0 -5 5 -10 11 -10 5 0 7 5 4 10 -3 6 -8 10 -11 10 -2 0
-4 -4 -4 -10z"/>
<path d="M910 1170 c0 -5 7 -10 15 -10 8 0 15 5 15 10 0 6 -7 10 -15 10 -8 0
-15 -4 -15 -10z"/>
<path d="M1047 1120 c3 -11 9 -17 14 -15 10 7 1 35 -11 35 -5 0 -6 -9 -3 -20z"/>
<path d="M1310 1090 c0 -5 5 -10 10 -10 6 0 10 5 10 10 0 6 -4 10 -10 10 -5 0
-10 -4 -10 -10z"/>
<path d="M2061 1078 c-1 -16 4 -28 9 -28 12 0 12 8 0 35 -8 18 -9 17 -9 -7z"/>
<path d="M1135 1060 c-3 -5 -1 -10 4 -10 6 0 11 5 11 10 0 6 -2 10 -4 10 -3 0
-8 -4 -11 -10z"/>
<path d="M1340 1052 c0 -7 -8 -12 -17 -12 -15 0 -16 -2 -3 -10 10 -6 17 -4 23
6 5 9 6 18 3 21 -3 4 -6 1 -6 -5z"/>
<path d="M1203 974 c-12 -26 -12 -26 7 -9 20 18 26 35 13 35 -5 0 -13 -12 -20
-26z"/>
<path d="M1245 990 c3 -5 8 -10 11 -10 2 0 4 5 4 10 0 6 -5 10 -11 10 -5 0 -7
-4 -4 -10z"/>
<path d="M1160 970 c0 -5 5 -10 11 -10 5 0 7 5 4 10 -3 6 -8 10 -11 10 -2 0
-4 -4 -4 -10z"/>
<path d="M1700 886 c-6 -8 -19 -12 -28 -9 -15 5 -15 4 1 -13 18 -19 18 -19 33
0 14 19 14 19 14 -2 0 -12 5 -22 10 -22 11 0 12 6 4 38 -7 26 -17 28 -34 8z"/>
<path d="M1990 870 c30 -23 40 -25 40 -6 0 15 -21 26 -48 26 -13 0 -11 -5 8
-20z"/>
<path d="M1853 874 c-7 -3 -9 -13 -6 -22 6 -14 4 -15 -8 -5 -21 17 -43 -16
-23 -35 11 -10 14 -10 14 3 0 8 9 15 20 15 11 0 20 -4 20 -10 0 -5 5 -10 11
-10 6 0 8 9 4 20 -5 14 -2 20 9 20 9 0 16 5 16 11 0 6 -7 9 -15 5 -8 -3 -15
-1 -15 4 0 11 -7 11 -27 4z"/>
<path d="M1790 861 c0 -6 5 -13 10 -16 6 -3 10 1 10 9 0 9 -4 16 -10 16 -5 0
-10 -4 -10 -9z"/>
<path d="M1963 853 c9 -2 23 -2 30 0 6 3 -1 5 -18 5 -16 0 -22 -2 -12 -5z"/>
<path d="M1910 828 c0 -4 7 -4 17 -1 11 4 14 3 9 -6 -6 -8 -1 -10 16 -6 12 3
33 6 45 8 45 6 30 12 -28 12 -32 0 -59 -3 -59 -7z"/>
<path d="M1950 790 c0 -5 5 -10 11 -10 5 0 7 5 4 10 -3 6 -8 10 -11 10 -2 0
-4 -4 -4 -10z"/>
<path d="M2045 790 c3 -5 8 -10 11 -10 2 0 4 5 4 10 0 6 -5 10 -11 10 -5 0 -7
-4 -4 -10z"/>
<path d="M2137 794 c-13 -13 -7 -20 18 -22 13 -1 27 3 31 10 5 7 0 9 -14 6
-12 -3 -22 -2 -24 4 -2 5 -7 6 -11 2z"/>
<path d="M2347 744 c3 -7 -1 -14 -8 -14 -7 0 -10 -2 -7 -5 7 -7 38 5 38 15 0
4 -7 10 -14 13 -10 4 -13 1 -9 -9z"/>
<path d="M2320 670 c0 -5 4 -10 9 -10 6 0 13 5 16 10 3 6 -1 10 -9 10 -9 0
-16 -4 -16 -10z"/>
<path d="M2237 553 c-4 -3 -7 -11 -7 -17 0 -6 5 -5 12 2 6 6 9 14 7 17 -3 3
-9 2 -12 -2z"/>
<path d="M1280 331 c0 -10 19 -25 25 -20 1 2 -3 10 -11 17 -8 7 -14 8 -14 3z"/>
<path d="M1366 243 c-6 -14 -5 -15 5 -6 7 7 10 15 7 18 -3 3 -9 -2 -12 -12z"/>
<path d="M393 213 c-24 -5 -29 -19 -14 -41 7 -11 17 -8 50 13 22 15 41 29 41
31 0 5 -47 3 -77 -3z"/>
<path d="M1540 152 c0 -5 14 -18 30 -30 31 -23 39 -19 17 9 -14 17 -47 32 -47
21z"/>
<path d="M1765 30 c3 -5 8 -10 11 -10 2 0 4 5 4 10 0 6 -5 10 -11 10 -5 0 -7
-4 -4 -10z"/>
<path d="M1728 3 c7 -3 16 -2 19 1 4 3 -2 6 -13 5 -11 0 -14 -3 -6 -6z"/>
</g>
</svg>
